<svg xmlns="http://www.w3.org/2000/svg" viewBox="0 0 64 64" id="RemoveFood"><g data-name="Layer 2" fill="#ffffff" class="color000000 svgShape"><path d="M60,46H57V42a24.72,24.72,0,0,0-2.16-10.16A9,9,0,1,0,42.16,19.16a25,25,0,0,0-6.36-1.87l.8-4.8a3,3,0,0,0-3-3.49H30.36a3,3,0,0,0-3,3.49l.8,4.8A25,25,0,0,0,7,42v4H4a1,1,0,0,0-1,1v2.5a1,1,0,0,0,.47.85l4,2.5A1,1,0,0,0,8,53H56a1,1,0,0,0,.53-.15l4-2.5A1,1,0,0,0,61,49.5V47A1,1,0,0,0,60,46ZM49,18a7,7,0,1,1-7,7A7,7,0,0,1,49,18ZM29.37,12.16a1,1,0,0,1,1-1.16h3.28a1,1,0,0,1,1,1.16l-.82,4.91a24.3,24.3,0,0,0-3.62,0ZM9,42A23,23,0,0,1,41,20.84C37,28.62,45.41,37,53.16,33A22.86,22.86,0,0,1,55,42v4H9Zm50,7-3.29,2H8.29L5,49V48H59Z" fill="#ffffff" class="color000000 svgShape"></path><rect width="8" height="2" x="45" y="24" fill="#ffffff" class="color000000 svgShape"></rect><path d="M21,24.14a21,21,0,0,0-9.71,14.53,1,1,0,0,0,.83,1.14h.16a1,1,0,0,0,1-.84A19,19,0,0,1,22,25.84,1,1,0,1,0,21,24.14Z" fill="#ffffff" class="color000000 svgShape"></path></g></svg>